<svg width="20" height="25" viewBox="0 0 20 25" fill="none" xmlns="http://www.w3.org/2000/svg">
<path d="M17.5014 0.786922L19.8186 19.5306C20.0502 21.3033 18.7593 22.9118 16.9718 23.1416L6.51171 24.4218C4.72434 24.6516 3.10237 23.3713 2.8706 21.5988L0.520349 2.69085C0.487239 2.36259 0.719009 2.03432 1.08308 2.0015L2.77127 1.80454C3.10237 1.77171 3.43333 2.0015 3.46644 2.36259L5.65114 19.9247C5.75047 20.8109 6.57794 21.4346 7.47162 21.3361L15.3167 20.3842C16.2104 20.2857 16.8394 19.4651 16.74 18.5787L14.5553 0.951054C14.5222 0.622803 14.754 0.294539 15.1181 0.261704L16.6407 0.064751C17.038 -0.000904657 17.4683 0.32736 17.5014 0.786922Z" fill="#ACBAC9"/>
</svg>
